<svg width="1280" height="960" viewBox="0 0 1280 960" fill="none" xmlns="http://www.w3.org/2000/svg">
  <rect width="1280" height="960" fill="#F3F4F6"/>
  <rect x="48" y="48" width="1184" height="864" rx="28" fill="#FFFFFF"/>
  <rect x="88" y="100" width="720" height="84" rx="22" fill="#111827"/>
  <text x="132" y="152" fill="#F9FAFB" font-family="Georgia, serif" font-size="36">한 글자씩, 리듬 있게.|</text>
  <rect x="856" y="100" width="336" height="760" rx="24" fill="#F9FAFB" stroke="#E5E7EB"/>
  <text x="900" y="154" fill="#111827" font-family="Helvetica, Arial, sans-serif" font-size="32" font-weight="700">Block settings</text>
  <text x="900" y="220" fill="#374151" font-family="Helvetica, Arial, sans-serif" font-size="24">Messages</text>
  <rect x="900" y="240" width="248" height="150" rx="18" fill="#FFFFFF" stroke="#D1D5DB"/>
  <text x="924" y="286" fill="#111827" font-family="Helvetica, Arial, sans-serif" font-size="22">한 글자씩, 리듬 있게.</text>
  <text x="924" y="322" fill="#111827" font-family="Helvetica, Arial, sans-serif" font-size="22">Animate headlines in</text>
  <text x="924" y="352" fill="#111827" font-family="Helvetica, Arial, sans-serif" font-size="22">any language.</text>
  <text x="900" y="444" fill="#374151" font-family="Helvetica, Arial, sans-serif" font-size="24">Typing delay</text>
  <rect x="900" y="468" width="248" height="14" rx="7" fill="#E5E7EB"/>
  <rect x="900" y="468" width="102" height="14" rx="7" fill="#F97316"/>
  <circle cx="1002" cy="475" r="18" fill="#111827"/>
  <text x="900" y="562" fill="#374151" font-family="Helvetica, Arial, sans-serif" font-size="24">Start when visible</text>
  <rect x="1044" y="532" width="104" height="48" rx="24" fill="#111827"/>
  <circle cx="1118" cy="556" r="18" fill="#FFFFFF"/>
</svg>

